<?xml version="1.0" encoding="iso-8859-1"?>
<!-- Generator: Adobe Illustrator 18.0.0, SVG Export Plug-In . SVG Version: 6.00 Build 0)  -->
<!DOCTYPE svg PUBLIC "-//W3C//DTD SVG 1.1//EN" "http://www.w3.org/Graphics/SVG/1.1/DTD/svg11.dtd">
<svg version="1.1" id="Capa_1" xmlns="http://www.w3.org/2000/svg" xmlns:xlink="http://www.w3.org/1999/xlink" x="0px" y="0px"
	 viewBox="0 0 472 472" style="enable-background:new 0 0 472 472;" xml:space="preserve">
<g>
	<path d="M44,237.77c3.313,0,6-2.687,6-6v-9c0-3.313-2.687-6-6-6s-6,2.687-6,6v9C38,235.084,40.687,237.77,44,237.77z"/>
	<path d="M89,237.77c3.313,0,6-2.687,6-6v-9c0-3.313-2.687-6-6-6s-6,2.687-6,6v9C83,235.084,85.687,237.77,89,237.77z"/>
	<path d="M44,266.77c-3.313,0-6,2.687-6,6v9c0,3.313,2.687,6,6,6s6-2.687,6-6v-9C50,269.457,47.313,266.77,44,266.77z"/>
	<path d="M89,266.77c-3.313,0-6,2.687-6,6v9c0,3.313,2.687,6,6,6s6-2.687,6-6v-9C95,269.457,92.313,266.77,89,266.77z"/>
	<path d="M146.5,295.77c-3.313,0-6,2.687-6,6v9c0,3.313,2.687,6,6,6s6-2.687,6-6v-9C152.5,298.457,149.813,295.77,146.5,295.77z"/>
	<path d="M191.25,295.77c-3.313,0-6,2.687-6,6v9c0,3.313,2.687,6,6,6s6-2.687,6-6v-9C197.25,298.457,194.563,295.77,191.25,295.77z"
		/>
	<path d="M280.75,316.77c3.313,0,6-2.687,6-6v-9c0-3.313-2.687-6-6-6s-6,2.687-6,6v9C274.75,314.084,277.437,316.77,280.75,316.77z"
		/>
	<path d="M236,295.77c-3.313,0-6,2.687-6,6v9c0,3.313,2.687,6,6,6c3.314,0,6-2.687,6-6v-9C242,298.457,239.314,295.77,236,295.77z"
		/>
	<path d="M325.5,316.77c3.313,0,6-2.687,6-6v-9c0-3.313-2.687-6-6-6s-6,2.687-6,6v9C319.5,314.084,322.187,316.77,325.5,316.77z"/>
	<path d="M146.5,333.77c-3.313,0-6,2.687-6,6v9c0,3.313,2.687,6,6,6s6-2.687,6-6v-9C152.5,336.457,149.813,333.77,146.5,333.77z"/>
	<path d="M191.25,333.77c-3.313,0-6,2.687-6,6v9c0,3.313,2.687,6,6,6s6-2.687,6-6v-9C197.25,336.457,194.563,333.77,191.25,333.77z"
		/>
	<path d="M280.75,354.77c3.313,0,6-2.687,6-6v-9c0-3.313-2.687-6-6-6s-6,2.687-6,6v9C274.75,352.084,277.437,354.77,280.75,354.77z"
		/>
	<path d="M325.5,354.77c3.313,0,6-2.687,6-6v-9c0-3.313-2.687-6-6-6s-6,2.687-6,6v9C319.5,352.084,322.187,354.77,325.5,354.77z"/>
	<path d="M146.5,264.77c3.313,0,6-2.687,6-6v-9c0-3.313-2.687-6-6-6s-6,2.687-6,6v9C140.5,262.084,143.187,264.77,146.5,264.77z"/>
	<path d="M191.25,264.77c3.313,0,6-2.687,6-6v-9c0-3.313-2.687-6-6-6s-6,2.687-6,6v9C185.25,262.084,187.937,264.77,191.25,264.77z"
		/>
	<path d="M280.75,264.77c3.313,0,6-2.687,6-6v-9c0-3.313-2.687-6-6-6s-6,2.687-6,6v9C274.75,262.084,277.437,264.77,280.75,264.77z"
		/>
	<path d="M236,264.77c3.314,0,6-2.687,6-6v-9c0-3.313-2.686-6-6-6c-3.313,0-6,2.687-6,6v9C230,262.084,232.687,264.77,236,264.77z"
		/>
	<path d="M325.5,264.77c3.313,0,6-2.687,6-6v-9c0-3.313-2.687-6-6-6s-6,2.687-6,6v9C319.5,262.084,322.187,264.77,325.5,264.77z"/>
	<path d="M205.25,168.77v-9c0-3.313-2.687-6-6-6s-6,2.687-6,6v9c0,3.313,2.687,6,6,6S205.25,172.084,205.25,168.77z"/>
	<path d="M272.75,174.77c3.313,0,6-2.687,6-6v-9c0-3.313-2.687-6-6-6s-6,2.687-6,6v9C266.75,172.084,269.437,174.77,272.75,174.77z"
		/>
	<path d="M466,166.77h-19.483L411.172,64.274c-0.834-2.42-3.112-4.044-5.672-4.044s-4.838,1.624-5.672,4.044L364.483,166.77H345
		c-3.313,0-6,2.687-6,6v33c0,3.313,2.687,6,6,6h7v15h-51.5v-81h7.5c3.313,0,6-2.687,6-6v-44c0-3.313-2.687-6-6-6h-23
		c-3.313,0-6,2.687-6,6v8h-9v-8c0-3.313-2.687-6-6-6h-56c-3.313,0-6,2.687-6,6v8h-9v-8c0-3.313-2.686-6-6-6h-23
		c-3.313,0-6,2.687-6,6v44c0,3.313,2.687,6,6,6h7.5v81H120v-15h7c3.313,0,6-2.687,6-6v-33c0-3.313-2.687-6-6-6h-19.482
		L72.172,64.274c-0.834-2.42-3.113-4.044-5.672-4.044c-2.56,0-4.838,1.624-5.672,4.044L25.482,166.77H6c-3.313,0-6,2.687-6,6v33
		c0,3.313,2.687,6,6,6h7v32.09c-2.837,0.477-5,2.938-5,5.91s2.163,5.433,5,5.91v150.09c0,3.313,2.687,6,6,6h93.5h1.5h244h1.5H453
		c3.313,0,6-2.687,6-6V255.68c2.836-0.477,5-2.938,5-5.91s-2.164-5.433-5-5.91v-32.09h7c3.313,0,6-2.687,6-6v-33
		C472,169.457,469.314,166.77,466,166.77z M405.5,84.635l28.324,82.136h-56.648L405.5,84.635z M253,399.77h-34v-30
		c0-9.374,7.626-17,17-17c9.375,0,17,7.626,17,17V399.77z M236,340.77c-15.991,0-29,13.01-29,29v30h-87v-118h232v118h-87v-30
		C265,353.78,251.991,340.77,236,340.77z M170,101.77h11v8c0,3.313,2.687,6,6,6h21c3.314,0,6-2.687,6-6v-8h44v8c0,3.313,2.687,6,6,6
		h21c3.313,0,6-2.687,6-6v-8h11v32h-7.5h-117H170V101.77z M183.5,145.77h105v81h-18.824c-6.49-22.522-16.076-44.456-28.529-65.262
		c-1.083-1.811-3.038-2.919-5.148-2.919s-4.065,1.108-5.148,2.919c-12.452,20.804-22.037,42.738-28.527,65.262H183.5V145.77z
		 M257.162,226.77h-42.324c5.202-17.163,12.293-33.958,21.162-50.121C244.869,192.814,251.96,209.608,257.162,226.77z M352,238.77
		v5.09c-2.836,0.477-5,2.938-5,5.91s2.164,5.433,5,5.91v14.09H120v-14.09c2.837-0.477,5-2.938,5-5.91s-2.163-5.433-5-5.91v-5.09H352
		z M66.5,84.635l28.324,82.136H38.176L66.5,84.635z M12,178.77h109v21h-7H19h-7V178.77z M108,211.77v32H25v-32H108z M25,399.77v-144
		h83v144H25z M364,399.77v-144h83v144H364z M447,243.77h-83v-32h83V243.77z M460,199.77h-7h-95h-7v-21h109V199.77z"/>
	<path d="M383,237.77c3.313,0,6-2.687,6-6v-9c0-3.313-2.687-6-6-6s-6,2.687-6,6v9C377,235.084,379.687,237.77,383,237.77z"/>
	<path d="M428,237.77c3.313,0,6-2.687,6-6v-9c0-3.313-2.687-6-6-6s-6,2.687-6,6v9C422,235.084,424.687,237.77,428,237.77z"/>
	<path d="M383,266.77c-3.313,0-6,2.687-6,6v9c0,3.313,2.687,6,6,6s6-2.687,6-6v-9C389,269.457,386.314,266.77,383,266.77z"/>
	<path d="M428,266.77c-3.313,0-6,2.687-6,6v9c0,3.313,2.687,6,6,6s6-2.687,6-6v-9C434,269.457,431.314,266.77,428,266.77z"/>
</g>
<g>
</g>
<g>
</g>
<g>
</g>
<g>
</g>
<g>
</g>
<g>
</g>
<g>
</g>
<g>
</g>
<g>
</g>
<g>
</g>
<g>
</g>
<g>
</g>
<g>
</g>
<g>
</g>
<g>
</g>
</svg>
